<svg width="320" height="220" viewBox="0 0 320 220" fill="none" xmlns="http://www.w3.org/2000/svg">
  <rect width="320" height="220" rx="16" fill="#0A1416" fill-opacity="0.8" stroke="rgba(255,255,255,0.05)" stroke-width="1"/>
  <defs>
    <pattern id="dotPattern" x="0" y="0" width="20" height="20" patternUnits="userSpaceOnUse">
      <circle cx="1" cy="1" r="0.5" fill="rgba(255,255,255,0.1)" />
    </pattern>
    <filter id="glow" x="-20%" y="-20%" width="140%" height="140%">
      <feGaussianBlur stdDeviation="3" result="blur" />
      <feComposite in="SourceGraphic" in2="blur" operator="over" />
    </filter>
  </defs>
  <rect width="300" height="180" x="10" y="10" fill="url(#dotPattern)" rx="10"/>
  <text x="20" y="35" fill="#64748B" font-family="monospace" font-size="10" letter-spacing="0.5">CRECIMIENTO_INGRESOS.py</text>
  <circle cx="290" cy="32" r="1.5" fill="#64748B" />
  <circle cx="296" cy="32" r="1.5" fill="#64748B" />
  <circle cx="302" cy="32" r="1.5" fill="#64748B" />
  <path d="M20 160 Q80 155 120 130 T220 90 T300 50" stroke="rgba(0, 224, 240, 0.2)" stroke-width="4" fill="none" />
  <path d="M20 160 Q80 155 120 130 T220 90 T300 50" stroke="#00E0F0" stroke-width="2" fill="none" filter="url(#glow)" />
  <path d="M20 160 Q80 155 120 130 T220 90 T300 50 V180 H20 Z" fill="url(#areaGradient)" />
  <defs>
    <linearGradient id="areaGradient" x1="160" y1="50" x2="160" y2="180" gradientUnits="userSpaceOnUse">
      <stop stop-color="#00E0F0" stop-opacity="0.1"/>
      <stop offset="1" stop-color="#00E0F0" stop-opacity="0"/>
    </linearGradient>
  </defs>
  <text x="20" y="200" fill="#00E0F0" font-family="sans-serif" font-size="18" font-weight="700">+24.8%</text>
  <text x="210" y="200" fill="#64748B" font-family="monospace" font-size="9" text-anchor="end">CONFIANZA:</text>
  <text x="215" y="200" fill="#64748B" font-family="monospace" font-size="9">98.2%</text>
</svg>
