<svg viewBox="0 0 100 98" xmlns="http://www.w3.org/2000/svg">
  <polygon fill="#E8762C" points="65.7,51.8 52,51.8 52,66.8 46.6,66.8 46.6,51.8 32.8,51.8 32.8,46.6 46.6,46.6 46.6,31.6 52,31.6 52,46.6 65.7,46.6"/>
  <polygon fill="#C72035" points="38.2,70.3 25.9,70.3 25.9,56.8 21.3,56.8 21.3,70.3 8.8,70.3 8.8,74.3 21.3,74.3 21.3,87.6 25.9,87.6 25.9,74.3 38.2,74.3"/>
  <polygon fill="#59879B" points="90.7,23 78.3,23 78.3,9.6 73.7,9.6 73.7,23 61.4,23 61.4,27.2 73.7,27.2 73.7,40.5 78.3,40.5 78.3,27.2 90.7,27.2"/>
</svg>
